<svg width="1050" height="205" viewBox="0 0 1050 205" fill="none" xmlns="http://www.w3.org/2000/svg">
<path d="M323.336 160C317.986 161 312.736 161.425 307.586 161.275C302.486 161.175 297.911 160.25 293.861 158.5C289.811 156.7 286.736 153.875 284.636 150.025C282.786 146.525 281.811 142.95 281.711 139.3C281.611 135.65 281.561 131.525 281.561 126.925V56.5H299.561V125.875C299.561 129.125 299.586 131.975 299.636 134.425C299.736 136.875 300.261 138.875 301.211 140.425C303.011 143.425 305.886 145.1 309.836 145.45C313.786 145.8 318.286 145.6 323.336 144.85V160ZM266.861 93.175V79H323.336V93.175H266.861ZM364.927 162.25C356.827 162.25 349.752 160.425 343.702 156.775C337.652 153.125 332.952 148.1 329.602 141.7C326.302 135.25 324.652 127.85 324.652 119.5C324.652 111 326.352 103.55 329.752 97.15C333.152 90.75 337.877 85.75 343.927 82.15C349.977 78.55 356.977 76.75 364.927 76.75C373.077 76.75 380.177 78.575 386.227 82.225C392.277 85.875 396.977 90.925 400.327 97.375C403.677 103.775 405.352 111.15 405.352 119.5C405.352 127.9 403.652 135.325 400.252 141.775C396.902 148.175 392.202 153.2 386.152 156.85C380.102 160.45 373.027 162.25 364.927 162.25ZM364.927 145.3C372.127 145.3 377.477 142.9 380.977 138.1C384.477 133.3 386.227 127.1 386.227 119.5C386.227 111.65 384.452 105.4 380.902 100.75C377.352 96.05 372.027 93.7 364.927 93.7C360.077 93.7 356.077 94.8 352.927 97C349.827 99.15 347.527 102.175 346.027 106.075C344.527 109.925 343.777 114.4 343.777 119.5C343.777 127.35 345.552 133.625 349.102 138.325C352.702 142.975 357.977 145.3 364.927 145.3ZM414.227 160L414.377 52H432.677V118L462.302 79H484.877L453.452 119.5L487.577 160H463.652L432.677 121V160H414.227ZM522.95 162.25C514.75 162.25 507.55 160.475 501.35 156.925C495.15 153.375 490.3 148.45 486.8 142.15C483.35 135.85 481.625 128.6 481.625 120.4C481.625 111.55 483.325 103.875 486.725 97.375C490.125 90.825 494.85 85.75 500.9 82.15C506.95 78.55 513.95 76.75 521.9 76.75C530.3 76.75 537.425 78.725 543.275 82.675C549.175 86.575 553.55 92.1 556.4 99.25C559.25 106.4 560.325 114.825 559.625 124.525H541.7V117.925C541.65 109.125 540.1 102.7 537.05 98.65C534 94.6 529.2 92.575 522.65 92.575C515.25 92.575 509.75 94.875 506.15 99.475C502.55 104.025 500.75 110.7 500.75 119.5C500.75 127.7 502.55 134.05 506.15 138.55C509.75 143.05 515 145.3 521.9 145.3C526.35 145.3 530.175 144.325 533.375 142.375C536.625 140.375 539.125 137.5 540.875 133.75L558.725 139.15C555.625 146.45 550.825 152.125 544.325 156.175C537.875 160.225 530.75 162.25 522.95 162.25ZM495.05 124.525V110.875H550.775V124.525H495.05ZM622.687 160V121C622.687 118.45 622.512 115.625 622.162 112.525C621.812 109.425 620.987 106.45 619.687 103.6C618.437 100.7 616.537 98.325 613.987 96.475C611.487 94.625 608.087 93.7 603.787 93.7C601.487 93.7 599.212 94.075 596.962 94.825C594.712 95.575 592.662 96.875 590.812 98.725C589.012 100.525 587.562 103.025 586.462 106.225C585.362 109.375 584.812 113.425 584.812 118.375L574.087 113.8C574.087 106.9 575.412 100.65 578.062 95.05C580.762 89.45 584.712 85 589.912 81.7C595.112 78.35 601.512 76.675 609.112 76.675C615.112 76.675 620.062 77.675 623.962 79.675C627.862 81.675 630.962 84.225 633.262 87.325C635.562 90.425 637.262 93.725 638.362 97.225C639.462 100.725 640.162 104.05 640.462 107.2C640.812 110.3 640.987 112.825 640.987 114.775V160H622.687ZM566.512 160V79H582.637V104.125H584.812V160H566.512ZM700.534 160C695.184 161 689.934 161.425 684.784 161.275C679.684 161.175 675.109 160.25 671.059 158.5C667.009 156.7 663.934 153.875 661.834 150.025C659.984 146.525 659.009 142.95 658.909 139.3C658.809 135.65 658.759 131.525 658.759 126.925V56.5H676.759V125.875C676.759 129.125 676.784 131.975 676.834 134.425C676.934 136.875 677.459 138.875 678.409 140.425C680.209 143.425 683.084 145.1 687.034 145.45C690.984 145.8 695.484 145.6 700.534 144.85V160ZM644.059 93.175V79H700.534V93.175H644.059ZM710.451 160V79H726.426V98.725L724.476 96.175C725.476 93.475 726.801 91.025 728.451 88.825C730.151 86.575 732.176 84.725 734.526 83.275C736.526 81.925 738.726 80.875 741.126 80.125C743.576 79.325 746.076 78.85 748.626 78.7C751.176 78.5 753.651 78.6 756.051 79V95.875C753.651 95.175 750.876 94.95 747.726 95.2C744.626 95.45 741.826 96.325 739.326 97.825C736.826 99.175 734.776 100.9 733.176 103C731.626 105.1 730.476 107.5 729.726 110.2C728.976 112.85 728.601 115.725 728.601 118.825V160H710.451ZM798.223 162.25C790.023 162.25 782.823 160.475 776.623 156.925C770.423 153.375 765.573 148.45 762.073 142.15C758.623 135.85 756.898 128.6 756.898 120.4C756.898 111.55 758.598 103.875 761.998 97.375C765.398 90.825 770.123 85.75 776.173 82.15C782.223 78.55 789.223 76.75 797.173 76.75C805.573 76.75 812.698 78.725 818.548 82.675C824.448 86.575 828.823 92.1 831.673 99.25C834.523 106.4 835.598 114.825 834.898 124.525H816.973V117.925C816.923 109.125 815.373 102.7 812.323 98.65C809.273 94.6 804.473 92.575 797.923 92.575C790.523 92.575 785.023 94.875 781.423 99.475C777.823 104.025 776.023 110.7 776.023 119.5C776.023 127.7 777.823 134.05 781.423 138.55C785.023 143.05 790.273 145.3 797.173 145.3C801.623 145.3 805.448 144.325 808.648 142.375C811.898 140.375 814.398 137.5 816.148 133.75L833.998 139.15C830.898 146.45 826.098 152.125 819.598 156.175C813.148 160.225 806.023 162.25 798.223 162.25ZM770.323 124.525V110.875H826.048V124.525H770.323ZM865.318 162.25C859.468 162.25 854.518 161.15 850.468 158.95C846.418 156.7 843.343 153.725 841.243 150.025C839.193 146.325 838.168 142.25 838.168 137.8C838.168 133.9 838.818 130.4 840.118 127.3C841.418 124.15 843.418 121.45 846.118 119.2C848.818 116.9 852.318 115.025 856.618 113.575C859.868 112.525 863.668 111.575 868.018 110.725C872.418 109.875 877.168 109.1 882.268 108.4C887.418 107.65 892.793 106.85 898.393 106L891.943 109.675C891.993 104.075 890.743 99.95 888.193 97.3C885.643 94.65 881.343 93.325 875.293 93.325C871.643 93.325 868.118 94.175 864.718 95.875C861.318 97.575 858.943 100.5 857.593 104.65L841.093 99.475C843.093 92.625 846.893 87.125 852.493 82.975C858.143 78.825 865.743 76.75 875.293 76.75C882.493 76.75 888.818 77.925 894.268 80.275C899.768 82.625 903.843 86.475 906.493 91.825C907.943 94.675 908.818 97.6 909.118 100.6C909.418 103.55 909.568 106.775 909.568 110.275V160H893.743V142.45L896.368 145.3C892.718 151.15 888.443 155.45 883.543 158.2C878.693 160.9 872.618 162.25 865.318 162.25ZM868.918 147.85C873.018 147.85 876.518 147.125 879.418 145.675C882.318 144.225 884.618 142.45 886.318 140.35C888.068 138.25 889.243 136.275 889.843 134.425C890.793 132.125 891.318 129.5 891.418 126.55C891.568 123.55 891.643 121.125 891.643 119.275L897.193 120.925C891.743 121.775 887.068 122.525 883.168 123.175C879.268 123.825 875.918 124.45 873.118 125.05C870.318 125.6 867.843 126.225 865.693 126.925C863.593 127.675 861.818 128.55 860.368 129.55C858.918 130.55 857.793 131.7 856.993 133C856.243 134.3 855.868 135.825 855.868 137.575C855.868 139.575 856.368 141.35 857.368 142.9C858.368 144.4 859.818 145.6 861.718 146.5C863.668 147.4 866.068 147.85 868.918 147.85ZM969.069 160C963.719 161 958.469 161.425 953.319 161.275C948.219 161.175 943.644 160.25 939.594 158.5C935.544 156.7 932.469 153.875 930.369 150.025C928.519 146.525 927.544 142.95 927.444 139.3C927.344 135.65 927.294 131.525 927.294 126.925V56.5H945.294V125.875C945.294 129.125 945.319 131.975 945.369 134.425C945.469 136.875 945.994 138.875 946.944 140.425C948.744 143.425 951.619 145.1 955.569 145.45C959.519 145.8 964.019 145.6 969.069 144.85V160ZM912.594 93.175V79H969.069V93.175H912.594ZM1010.26 162.25C1000.26 162.25 992.136 160 985.886 155.5C979.636 151 975.836 144.675 974.486 136.525L992.936 133.675C993.886 137.675 995.986 140.825 999.236 143.125C1002.49 145.425 1006.59 146.575 1011.54 146.575C1015.89 146.575 1019.24 145.725 1021.59 144.025C1023.99 142.275 1025.19 139.9 1025.19 136.9C1025.19 135.05 1024.74 133.575 1023.84 132.475C1022.99 131.325 1021.09 130.225 1018.14 129.175C1015.19 128.125 1010.66 126.8 1004.56 125.2C997.761 123.4 992.361 121.475 988.361 119.425C984.361 117.325 981.486 114.85 979.736 112C977.986 109.15 977.111 105.7 977.111 101.65C977.111 96.6 978.436 92.2 981.086 88.45C983.736 84.7 987.436 81.825 992.186 79.825C996.936 77.775 1002.54 76.75 1008.99 76.75C1015.29 76.75 1020.86 77.725 1025.71 79.675C1030.61 81.625 1034.56 84.4 1037.56 88C1040.56 91.6 1042.41 95.825 1043.11 100.675L1024.66 103.975C1024.21 100.525 1022.64 97.8 1019.94 95.8C1017.29 93.8 1013.74 92.675 1009.29 92.425C1005.04 92.175 1001.61 92.825 999.011 94.375C996.411 95.875 995.111 98 995.111 100.75C995.111 102.3 995.636 103.625 996.686 104.725C997.736 105.825 999.836 106.925 1002.99 108.025C1006.19 109.125 1010.94 110.475 1017.24 112.075C1023.69 113.725 1028.84 115.625 1032.69 117.775C1036.59 119.875 1039.39 122.4 1041.09 125.35C1042.84 128.3 1043.71 131.875 1043.71 136.075C1043.71 144.225 1040.74 150.625 1034.79 155.275C1028.89 159.925 1020.71 162.25 1010.26 162.25Z" fill="white"/>
<ellipse cx="19.8056" cy="21.8056" rx="19.8056" ry="19.8056" fill="white"/>
<ellipse cx="72.5399" cy="21.8056" rx="19.8056" ry="19.8056" fill="white"/>
<ellipse cx="125.03" cy="21.8056" rx="19.8056" ry="19.8056" fill="white"/>
<ellipse cx="125.03" cy="75.389" rx="19.8056" ry="19.9271" fill="#FFBF00"/>
<ellipse cx="125.03" cy="128.61" rx="19.8056" ry="19.9271" fill="#FFBF00"/>
<line x1="17.5488" y1="21.011" x2="125.105" y2="22.6044" stroke="white" stroke-width="5"/>
<line x1="125.785" y1="73.126" x2="125.785" y2="179.809" stroke="#FFBF00" stroke-width="5"/>
<ellipse cx="72.5399" cy="75.389" rx="19.8056" ry="19.9271" fill="white"/>
<ellipse cx="177.763" cy="75.389" rx="19.8056" ry="19.9271" fill="#FFBF00"/>
<ellipse cx="72.5399" cy="128.61" rx="19.8056" ry="19.9271" fill="white"/>
<ellipse cx="125.03" cy="182.194" rx="19.8056" ry="19.8056" fill="#FFBF00"/>
<line x1="72.7082" y1="74.9717" x2="180.045" y2="75.1879" stroke="#FFBF00" stroke-width="5"/>
<line x1="73.623" y1="21.7607" x2="73.4579" y2="128.614" stroke="white" stroke-width="5"/>
<ellipse cx="72.3952" cy="75.5807" rx="9.96354" ry="9.96354" fill="black"/>
</svg>
